<svg width="297" height="306" viewBox="0 0 297 306" fill="none" xmlns="http://www.w3.org/2000/svg">
<g filter="url(#filter0_d_125_114)">
<path d="M74.9151 39.806C87.4237 6.58347 112.005 0.52084 125.725 0.52955C165.358 0.538261 180.663 13.491 206.124 42.6283C230 69.9536 247.038 65.8335 260.749 76.3212C283.1 93.4289 295.801 152.487 252.5 188.602C191.116 239.812 151.682 242.922 98.6343 226.389C62.8596 215.239 32.8774 184.769 32.1544 151.033C30.7607 85.8506 61.3875 75.7375 74.9151 39.806Z" fill="#B3FFD1"/>
<path d="M265.557 72.236L265.392 72.175C263.911 71.6175 263.162 69.9712 263.711 68.4904L276.602 33.9961C277.16 32.5153 278.806 31.7661 280.287 32.3149L280.452 32.3759C281.933 32.9334 282.682 34.5797 282.134 36.0605L269.242 70.5548C268.684 72.0356 267.038 72.7934 265.557 72.236Z" fill="#EDB82C"/>
<path d="M261.245 67.7588L261.08 67.7066C259.564 67.271 258.684 65.6857 259.12 64.1613L269.965 26.3657C270.4 24.85 271.985 23.9703 273.51 24.4058L273.675 24.4581C275.191 24.8936 276.071 26.4789 275.635 28.0033L264.782 65.7989C264.346 67.3233 262.761 68.1944 261.245 67.7588Z" fill="#EDB82C"/>
<path d="M259.433 78.0896L259.268 78.0286C257.787 77.4712 257.038 75.8248 257.587 74.344L271.358 37.5153C271.916 36.0345 273.562 35.2853 275.043 35.8341L275.208 35.8951C276.689 36.4526 277.438 38.0989 276.889 39.5797L263.118 76.4084C262.569 77.898 260.914 78.6471 259.433 78.0896Z" fill="#EDB82C"/>
<path d="M256.542 63.7954L256.376 63.7431C254.86 63.3076 253.981 61.7222 254.416 60.1979L265.261 22.4022C265.696 20.8866 267.282 20.0068 268.806 20.4423L268.972 20.4946C270.487 20.9301 271.367 22.5155 270.932 24.0398L260.087 61.8355C259.651 63.3598 258.066 64.2309 256.542 63.7954Z" fill="#EDB82C"/>
<path d="M252.413 66.5655L252.238 66.5394C250.679 66.2781 249.625 64.7973 249.886 63.2381L256.419 24.4668C256.681 22.9076 258.162 21.8536 259.721 22.1149L259.895 22.1411C261.454 22.4024 262.508 23.8832 262.247 25.4424L255.714 64.2136C255.453 65.7729 253.972 66.8269 252.413 66.5655Z" fill="#EDB82C"/>
<path d="M248.972 69.44L248.798 69.4226C247.221 69.2746 246.071 67.8721 246.219 66.3042L249.956 27.1584C250.104 25.5818 251.507 24.432 253.075 24.5801L253.249 24.5975C254.826 24.7456 255.975 26.148 255.827 27.7159L252.09 66.8617C251.942 68.4383 250.54 69.5881 248.972 69.44Z" fill="#EDB82C"/>
<path d="M256.803 61.4696L256.628 61.4435C255.069 61.1822 254.015 59.7014 254.277 58.1422L260.81 19.3709C261.071 17.8117 262.552 16.7577 264.111 17.0191L264.285 17.0452C265.844 17.3065 266.898 18.7873 266.637 20.3465L260.104 59.1178C259.834 60.6857 258.362 61.7397 256.803 61.4696Z" fill="#EDB82C"/>
<path d="M243.38 72.628L243.205 72.6106C241.629 72.4625 240.479 71.0601 240.627 69.4922L244.364 30.3464C244.512 28.7698 245.914 27.62 247.482 27.7681L247.657 27.7855C249.233 27.9336 250.383 29.336 250.235 30.9039L246.498 70.0497C246.35 71.6263 244.948 72.7761 243.38 72.628Z" fill="#EDB82C"/>
<path d="M240.853 67.5237L240.679 67.515C239.103 67.454 237.874 66.1213 237.935 64.5359L239.512 25.2508C239.573 23.6741 240.906 22.4459 242.491 22.5069L242.665 22.5156C244.242 22.5766 245.47 23.9093 245.409 25.4947L243.832 64.7798C243.763 66.3565 242.43 67.5934 240.853 67.5237Z" fill="#EDB82C"/>
<path d="M278.266 53.4209C278.458 52.2624 277.926 51.1648 276.829 50.1282C276.881 50.7903 276.846 51.4523 276.689 52.0969C275.322 58.0027 265.731 60.8162 255.287 58.386C244.834 55.9557 237.483 49.2049 238.85 43.2991C238.998 42.6719 239.242 42.0796 239.564 41.5221C238.179 41.975 237.247 42.7155 236.916 43.813L233.929 80.7376C233.911 80.9989 233.929 81.2515 233.972 81.4954C233.972 81.5041 233.963 81.5128 233.963 81.5128C233.502 83.5076 239.878 86.687 248.205 88.6207C254.468 90.0754 260.043 90.4064 262.63 89.6399C262.665 89.6312 262.691 89.6225 262.726 89.605C263.405 89.3873 263.867 89.0911 264.059 88.7078C264.277 88.4552 264.459 88.1765 264.581 87.8542L278.266 53.4209Z" fill="#E06738"/>
<path d="M48.3142 90.8351L32.5044 94.2322L28.2884 95.1381L12.4785 98.5353L27.426 146.453C27.426 146.488 27.4173 146.522 27.426 146.557C27.7832 148.204 34.1071 148.238 41.5548 146.636C49.0024 145.033 54.7601 142.402 54.403 140.765C54.3943 140.73 54.3682 140.704 54.3595 140.669L48.3142 90.8351Z" fill="#E06738"/>
<path d="M48.6055 79.1971L30.2695 83.1343L25.3828 84.1883L7.04688 88.1256L24.3811 143.708C24.3811 143.743 24.3724 143.787 24.3811 143.83C24.7905 145.738 32.1249 145.782 40.7659 143.917C49.4069 142.053 56.0793 139.013 55.6699 137.106C55.6612 137.071 55.635 137.036 55.6176 137.001L48.6055 79.1971Z" fill="#FDF0B9"/>
<path d="M41.6544 100.207L41.245 100.233C40.3914 100.294 39.6423 99.6586 39.5813 98.7962L38.5621 85.0595C38.5012 84.2058 39.1371 83.4567 39.9994 83.3957L40.4088 83.3696C41.2625 83.3086 42.0116 83.9445 42.0725 84.8069L43.0917 98.5436C43.144 99.3973 42.5081 100.146 41.6544 100.207Z" fill="black"/>
<path d="M29.1158 89.6917C41.9328 86.9388 51.6719 81.6758 50.8688 77.9365C50.0656 74.1972 39.0243 73.3976 26.2073 76.1506C13.3902 78.9036 3.65109 84.1666 4.45425 87.9058C5.25741 91.6451 16.2987 92.4447 29.1158 89.6917Z" fill="#E06738"/>
<mask id="mask0_125_114" style="mask-type:alpha" maskUnits="userSpaceOnUse" x="11" y="86" width="42" height="57">
<path d="M46.6596 86.6153L31.3645 89.9229L27.2882 90.8084L11.9932 94.116L26.4526 140.81C26.4526 140.839 26.4454 140.876 26.4526 140.913C26.7942 142.515 32.9122 142.552 40.1201 140.986C47.3281 139.42 52.8939 136.866 52.5524 135.263C52.5451 135.234 52.5233 135.205 52.5088 135.176L46.6596 86.6153Z" fill="#A03AB4"/>
</mask>
<g mask="url(#mask0_125_114)">
<path d="M13.2314 102.951C13.2314 102.951 18.2575 95.8521 22.6303 96.3747C27.0117 96.8973 27.848 98.3694 33.7538 96.7057C39.6596 95.0332 40.3042 91.8974 45.8094 92.5072C49.6682 92.934 54.0148 96.697 54.0148 96.697L57.2291 146.383L23.3445 153.665L13.2314 102.951Z" fill="#EDB82C"/>
</g>
<path d="M39.747 53.6313C39.7644 53.7184 39.7731 53.7968 39.7819 53.8839L40.8881 68.8489L41.6895 79.5805C40.6355 80.0683 39.4857 80.5386 38.2662 81.0003L37.369 68.8402L36.2889 54.1366C36.2192 53.1697 36.9335 52.3247 37.9091 52.255C38.7801 52.1941 39.5641 52.7951 39.747 53.6313Z" fill="black"/>
<mask id="mask1_125_114" style="mask-type:alpha" maskUnits="userSpaceOnUse" x="32" y="0" width="250" height="236">
<path d="M74.9151 39.806C87.4237 6.58347 112.005 0.52084 125.725 0.52955C165.358 0.538261 180.663 13.491 206.124 42.6283C230 69.9536 247.038 65.8335 260.749 76.3212C283.1 93.4289 295.801 152.487 252.5 188.602C191.116 239.812 151.682 242.922 98.6343 226.389C62.8596 215.239 32.8774 184.769 32.1544 151.033C30.7607 85.8506 61.3875 75.7375 74.9151 39.806Z" fill="#FFF3F3"/>
</mask>
<g mask="url(#mask1_125_114)">
<path d="M109.488 53.6647H188.624C197.474 53.6647 204.652 60.8423 204.652 69.6923V235.814C204.652 244.664 197.474 251.841 188.624 251.841H109.488C100.638 251.841 93.46 244.664 93.46 235.814V69.6836C93.46 60.8336 100.638 53.6647 109.488 53.6647Z" fill="black"/>
<path d="M111.448 60.8597H186.656C192.614 60.8597 197.448 65.6942 197.448 71.6523V233.845C197.448 239.803 192.614 244.638 186.656 244.638H111.448C105.49 244.638 100.655 239.803 100.655 233.845V71.6523C100.655 65.6855 105.49 60.8597 111.448 60.8597Z" fill="#32B768"/>
<path d="M113.408 102.532H184.696C187.405 102.532 189.6 104.727 189.6 107.436V149.291C189.6 152 187.405 154.195 184.696 154.195H113.408C110.699 154.195 108.503 152 108.503 149.291V107.436C108.503 104.727 110.699 102.532 113.408 102.532Z" fill="white"/>
<path d="M113.408 161.39H184.696C187.405 161.39 189.6 163.585 189.6 166.294V182.644C189.6 185.353 187.405 187.548 184.696 187.548H113.408C110.699 187.548 108.503 185.353 108.503 182.644V166.294C108.503 163.585 110.699 161.39 113.408 161.39Z" fill="white"/>
<path d="M113.408 194.743H184.696C187.405 194.743 189.6 196.938 189.6 199.647V215.997C189.6 218.706 187.405 220.901 184.696 220.901H113.408C110.699 220.901 108.503 218.706 108.503 215.997V199.647C108.503 196.938 110.699 194.743 113.408 194.743Z" fill="white"/>
<mask id="mask2_125_114" style="mask-type:alpha" maskUnits="userSpaceOnUse" x="100" y="60" width="98" height="185">
<path d="M111.448 60.8597H186.656C192.614 60.8597 197.448 65.6942 197.448 71.6523V233.845C197.448 239.803 192.614 244.638 186.656 244.638H111.448C105.49 244.638 100.655 239.803 100.655 233.845V71.6523C100.655 65.6855 105.49 60.8597 111.448 60.8597Z" fill="white"/>
</mask>
<g mask="url(#mask2_125_114)">
<path d="M113.408 228.096H184.696C187.405 228.096 189.6 230.291 189.6 233V249.35C189.6 252.059 187.405 254.254 184.696 254.254H113.408C110.699 254.254 108.503 252.059 108.503 249.35V233C108.503 230.3 110.699 228.096 113.408 228.096Z" fill="#32B768"/>
</g>
<path d="M176.011 107.819H124.453C123.991 110.632 124.453 118.646 124.453 118.646C124.453 123.15 135.994 126.799 150.236 126.799C164.478 126.799 176.02 123.15 176.02 118.646C176.36 112.261 176.011 107.819 176.011 107.819Z" fill="#EDB82C"/>
<path d="M175.367 106.512C177.814 106.382 179.809 108.96 178.99 110.528C178.163 112.096 175.114 113.272 174.112 113.568C171.821 114.247 173.476 117.767 169.165 116.721C166.935 116.181 166.273 117.697 165.036 118.908C163.799 120.118 160.497 119.273 157.405 117.932C154.313 116.599 151.63 120.362 148.633 119.996C145.646 119.631 142.963 118.176 141.003 118.908C139.043 119.639 137.911 118.908 135.533 116.599C133.163 114.291 130.785 117.453 128.625 116.599C126.456 115.746 127.284 113.681 124.914 112.592C122.545 111.504 120.167 111.094 120.167 109.735C120.167 106.66 124.871 105.894 124.871 105.894L175.367 106.512Z" fill="#E06738"/>
<path d="M176.011 103.002C176.011 112.444 164.469 114.509 150.227 114.509C135.985 114.509 124.444 112.453 124.444 103.002C124.444 93.5509 135.985 85.8943 150.227 85.8943C164.469 85.8943 176.011 93.5509 176.011 103.002Z" fill="#EDB82C"/>
<path d="M167.701 73.2189H131.647C130.654 73.2189 129.844 72.4088 129.844 71.4158C129.844 70.4228 130.654 69.6127 131.647 69.6127H167.701C168.694 69.6127 169.504 70.4228 169.504 71.4158C169.504 72.4088 168.694 73.2189 167.701 73.2189Z" fill="#0E7F3D"/>
<path d="M173.084 140.449H126.256C125.263 140.449 124.453 139.639 124.453 138.646C124.453 137.653 125.263 136.843 126.256 136.843H173.093C174.086 136.843 174.896 137.653 174.896 138.646C174.896 139.639 174.086 140.449 173.084 140.449Z" fill="#0E7F3D"/>
<path d="M164.408 146.939H134.932C133.939 146.939 133.128 146.129 133.128 145.136C133.128 144.142 133.939 143.332 134.932 143.332H164.408C165.401 143.332 166.212 144.142 166.212 145.136C166.212 146.129 165.41 146.939 164.408 146.939Z" fill="#0E7F3D"/>
<path d="M128.094 182.043H117.38C116.16 182.043 115.167 181.05 115.167 179.83V169.116C115.167 167.897 116.16 166.904 117.38 166.904H128.094C129.313 166.904 130.306 167.897 130.306 169.116V179.83C130.306 181.05 129.313 182.043 128.094 182.043Z" fill="#0E7F3D"/>
<path d="M167.832 170.998H135.942C135.28 170.998 134.749 170.466 134.749 169.804C134.749 169.142 135.28 168.611 135.942 168.611H167.832C168.494 168.611 169.025 169.142 169.025 169.804C169.025 170.466 168.494 170.998 167.832 170.998Z" fill="#32B768"/>
<path d="M167.832 175.745H135.942C135.28 175.745 134.749 175.213 134.749 174.551C134.749 173.889 135.28 173.358 135.942 173.358H167.832C168.494 173.358 169.025 173.889 169.025 174.551C169.025 175.205 168.494 175.745 167.832 175.745Z" fill="#32B768"/>
<path d="M163.18 180.335H135.942C135.28 180.335 134.749 179.804 134.749 179.142C134.749 178.48 135.28 177.949 135.942 177.949H163.18C163.842 177.949 164.374 178.48 164.374 179.142C164.382 179.795 163.842 180.335 163.18 180.335Z" fill="#32B768"/>
<path d="M128.094 215.396H117.38C116.16 215.396 115.167 214.403 115.167 213.183V202.469C115.167 201.25 116.16 200.257 117.38 200.257H128.094C129.313 200.257 130.306 201.25 130.306 202.469V213.183C130.306 214.403 129.313 215.396 128.094 215.396Z" fill="#0E7F3D"/>
<path d="M167.832 204.368H135.942C135.28 204.368 134.749 203.837 134.749 203.175C134.749 202.513 135.28 201.981 135.942 201.981H167.832C168.494 201.981 169.025 202.513 169.025 203.175C169.025 203.837 168.494 204.368 167.832 204.368Z" fill="#32B768"/>
<path d="M167.832 209.116H135.942C135.28 209.116 134.749 208.584 134.749 207.922C134.749 207.26 135.28 206.729 135.942 206.729H167.832C168.494 206.729 169.025 207.26 169.025 207.922C169.025 208.584 168.494 209.116 167.832 209.116Z" fill="#32B768"/>
<path d="M163.18 213.671H135.942C135.28 213.671 134.749 213.14 134.749 212.478C134.749 211.816 135.28 211.284 135.942 211.284H163.18C163.842 211.284 164.374 211.816 164.374 212.478C164.382 213.131 163.842 213.671 163.18 213.671Z" fill="#32B768"/>
</g>
<path d="M268.432 225.823C262.674 215.37 261.036 186.163 257.125 169.935C250.801 143.672 238.493 145.388 231.908 148.097C231.681 148.193 229.146 143.986 223.066 143.986C215.897 143.986 215.958 147.348 213.833 147.723C212.239 148.001 208.946 146.573 204.382 147.618C199.791 148.672 197.927 152.2 196.394 153.35L190.732 132.226C189.008 125.798 182.396 121.983 175.968 123.707C169.539 125.432 165.724 132.044 167.449 138.472L182.692 195.309L170.637 187.13C165.132 183.393 157.632 184.822 153.895 190.335C150.158 195.841 151.586 203.34 157.1 207.077L190.523 229.769C198.075 235.126 207.875 242.66 211.481 248.009C217.666 257.181 226.864 295.438 226.864 295.438C273.37 306.536 285.295 275.526 285.295 275.526L268.432 225.823Z" fill="#F0C7A9"/>
<path d="M280.156 252.8L274.137 234.046C273.214 231.171 270.496 229.307 267.561 229.542L231.568 232.408C231.124 232.443 230.706 232.539 230.305 232.661L229.826 231.319L227.317 234.594C227.152 234.795 226.986 234.995 226.847 235.213L226.76 235.335L226.769 235.352C226.525 235.735 226.307 236.145 226.141 236.572C225.636 237.913 225.558 239.455 226.046 240.962L232.065 259.716C232.988 262.59 235.706 264.455 238.641 264.219L274.634 261.354C278.736 261.023 281.454 256.824 280.156 252.8Z" fill="#0E7F3D"/>
<path d="M277.343 254.289L282.926 268.575C282.926 268.575 288.702 242.66 274.146 234.046L277.343 254.289Z" fill="black"/>
<path d="M274.337 258.253L240.627 260.944C237.874 261.162 235.322 259.289 234.442 256.415L228.711 237.634C227.482 233.601 230 229.42 233.859 229.115L267.569 226.424C270.321 226.206 272.874 228.079 273.753 230.953L279.485 249.734C280.713 253.767 278.187 257.948 274.337 258.253Z" fill="#32B768"/>
<path d="M232.047 259.716C232.047 259.716 218.946 265.343 222.518 278.862C222.518 278.862 212.5 283.348 210.366 272.782C208.223 262.225 207.753 243.679 225.767 239.777L232.047 259.716Z" fill="black"/>
<path d="M194.704 146.573L202.465 172.914" stroke="black" stroke-width="1.75615" stroke-miterlimit="10" stroke-linecap="round"/>
<path d="M214.53 148.193C214.53 148.193 221.472 158.637 222.552 171.294" stroke="black" stroke-width="1.75615" stroke-miterlimit="10" stroke-linecap="round"/>
<path d="M232.047 148.594C232.047 148.594 238.989 159.038 240.069 171.695" stroke="black" stroke-width="1.75615" stroke-miterlimit="10" stroke-linecap="round"/>
<path d="M48.8367 215.998C55.7402 215.998 61.3366 210.402 61.3366 203.498C61.3366 196.595 55.7402 190.999 48.8367 190.999C41.9333 190.999 36.3369 196.595 36.3369 203.498C36.3369 210.402 41.9333 215.998 48.8367 215.998Z" fill="#0E7F3D"/>
<path d="M292.943 133.002C293.396 131.416 291.097 129.282 287.386 127.514C286.663 127.166 286.236 126.408 286.332 125.606C286.811 121.521 286.219 118.438 284.633 117.985C283.048 117.532 280.914 119.831 279.146 123.542C278.797 124.265 278.039 124.692 277.238 124.596C273.153 124.117 270.069 124.709 269.616 126.295C269.163 127.88 271.463 130.014 275.174 131.782C275.897 132.131 276.323 132.889 276.228 133.69C275.749 137.775 276.341 140.859 277.926 141.312C279.512 141.765 281.646 139.465 283.414 135.754C283.762 135.031 284.52 134.605 285.322 134.7C289.398 135.179 292.482 134.587 292.943 133.002Z" fill="#32B768"/>
<path d="M107.624 9.30999C107.275 7.69851 104.235 6.90584 100.124 7.1149C99.3226 7.15845 98.5909 6.68807 98.2947 5.93896C96.7704 2.11497 94.7843 -0.31531 93.1816 0.033117C91.5701 0.381544 90.7774 3.42157 90.9865 7.53301C91.03 8.33439 90.5597 9.06609 89.8105 9.36225C85.9865 10.8866 83.5563 12.8727 83.9047 14.4754C84.2531 16.0869 87.2932 16.8796 91.4046 16.6705C92.206 16.627 92.9377 17.0973 93.2338 17.8465C94.7582 21.6704 96.7442 24.1007 98.347 23.7523C99.9585 23.4039 100.751 20.3638 100.542 16.2524C100.499 15.451 100.969 14.7193 101.718 14.4232C105.542 12.9075 107.972 10.9215 107.624 9.30999Z" fill="#E06738"/>
</g>
<defs>
<filter id="filter0_d_125_114" x="0.407715" y="0" width="296.592" height="305.837" filterUnits="userSpaceOnUse" color-interpolation-filters="sRGB">
<feFlood flood-opacity="0" result="BackgroundImageFix"/>
<feColorMatrix in="SourceAlpha" type="matrix" values="0 0 0 0 0 0 0 0 0 0 0 0 0 0 0 0 0 0 127 0" result="hardAlpha"/>
<feOffset dy="4"/>
<feGaussianBlur stdDeviation="2"/>
<feComposite in2="hardAlpha" operator="out"/>
<feColorMatrix type="matrix" values="0 0 0 0 0 0 0 0 0 0 0 0 0 0 0 0 0 0 0.25 0"/>
<feBlend mode="normal" in2="BackgroundImageFix" result="effect1_dropShadow_125_114"/>
<feBlend mode="normal" in="SourceGraphic" in2="effect1_dropShadow_125_114" result="shape"/>
</filter>
</defs>
</svg>
